<?xml version="1.0" encoding="UTF-8"?>
<svg version="1.1" xmlns="http://www.w3.org/2000/svg" width="897" height="278">
<path d="M0 0 C296.01 0 592.02 0 897 0 C897 91.74 897 183.48 897 278 C600.99 278 304.98 278 0 278 C0 186.26 0 94.52 0 0 Z " fill="#F3F4F5" transform="translate(0,0)"/>
<path d="M0 0 C80.34562212 0 80.34562212 0 95 12 C103.96110286 21.59833684 107.55104443 32.91918385 107.23828125 45.890625 C106.27833656 58.41711639 101.23092269 67.19406638 92.25 75.875 C87.46304092 79.84817604 81.79615577 81.90372366 76 84 C79.78709755 92.81118676 84.22860602 101.21722835 88.75439453 109.66162109 C90.03521221 112.06610399 91.29927499 114.47872454 92.55859375 116.89453125 C96.7787158 124.9840993 101.0299132 132.97939837 105.8203125 140.75 C107 143 107 143 107 146 C98.42 146 89.84 146 81 146 C71.21651786 127.52008929 71.21651786 127.52008929 67.125 119.25 C61.92609001 108.74249836 56.43947097 98.38444457 51 88 C37.14 87.505 37.14 87.505 23 87 C23 106.47 23 125.94 23 146 C15.41 146 7.82 146 0 146 C0 97.82 0 49.64 0 0 Z " fill="#040404" transform="translate(305,66)"/>
<path d="M0 0 C7.59 0 15.18 0 23 0 C30.84541373 19.47826858 30.84541373 19.47826858 34 28.0625 C36.51303765 34.89282985 39.30375651 41.59022447 42.19726562 48.26782227 C43.73927354 51.85717921 45.17680931 55.42387587 46.37109375 59.14453125 C48.52893792 65.80746246 51.24900779 72.26149687 53.875 78.75 C54.91546554 81.32756099 55.95433474 83.90576093 56.9921875 86.484375 C57.24768875 87.11876495 57.50319 87.75315491 57.76643372 88.4067688 C59.82622971 93.53497182 61.81152145 98.68974842 63.78515625 103.8515625 C66.23084676 110.18991153 68.79261914 116.48238518 71.33789062 122.78125 C79 141.8355499 79 141.8355499 79 146 C70.75 146 62.5 146 54 146 C42 116.4 42 116.4 42 112 C21.54 112 1.08 112 -20 112 C-20.33 113.65 -20.66 115.3 -21 117 C-21.71689239 119.20375478 -22.47052575 121.39572043 -23.25 123.578125 C-23.6934375 124.82078125 -24.136875 126.0634375 -24.59375 127.34375 C-24.93986328 128.30474609 -24.93986328 128.30474609 -25.29296875 129.28515625 C-26.00220485 131.25612729 -26.70458516 133.22944763 -27.40625 135.203125 C-30.87033279 144.87033279 -30.87033279 144.87033279 -32 146 C-33.78071246 146.08726223 -35.5648314 146.10699041 -37.34765625 146.09765625 C-38.42724609 146.09443359 -39.50683594 146.09121094 -40.61914062 146.08789062 C-41.75544922 146.07951172 -42.89175781 146.07113281 -44.0625 146.0625 C-45.20267578 146.05798828 -46.34285156 146.05347656 -47.51757812 146.04882812 C-50.34510351 146.03699747 -53.1725264 146.0205141 -56 146 C-55.52997559 138.80340402 -52.59285401 132.64448839 -49.8125 126.0625 C-48.79650259 123.6165803 -47.7821675 121.16996941 -46.76953125 118.72265625 C-46.28436035 117.55234863 -45.79918945 116.38204102 -45.29931641 115.17626953 C-43.78544217 111.47549844 -42.37321928 107.75508636 -41 104 C-38.32526987 96.71662408 -35.38573405 89.55155853 -32.4375 82.375 C-29.19911261 74.48899644 -26.07197505 66.62415468 -23.30078125 58.5625 C-21.17474198 52.73983388 -18.74672403 47.0410431 -16.37109375 41.31665039 C-13.7563179 34.97091626 -11.39389253 28.58383973 -9.18139648 22.08886719 C-6.56399605 14.52361733 -3.28699403 7.29712675 0 0 Z " fill="#050505" transform="translate(193,66)"/>
<path d="M0 0 C4.11036969 3.57942208 7.45628646 6.84996552 10.00390625 11.71875 C10.00390625 12.37875 10.00390625 13.03875 10.00390625 13.71875 C7.84375 15.3046875 7.84375 15.3046875 4.94140625 17.09375 C3.94367188 17.71121094 2.9459375 18.32867187 1.91796875 18.96484375 C-1.35956613 20.93751555 -4.65218206 22.86102128 -7.99609375 24.71875 C-8.32480469 24.21085937 -8.65351562 23.70296875 -8.9921875 23.1796875 C-14.66626455 14.96842152 -21.44566299 10.4783838 -31.16796875 8.18359375 C-40.87056322 6.58883029 -50.40538145 7.25277887 -58.87109375 12.46875 C-62.59245343 15.18345915 -64.72855986 17.15562798 -65.99609375 21.71875 C-66.63124925 28.40169052 -66.72059808 33.90852325 -62.99609375 39.71875 C-62.66609375 40.70875 -62.33609375 41.69875 -61.99609375 42.71875 C-59.73111785 43.83614997 -59.73111785 43.83614997 -56.99609375 44.71875 C-55.64257812 45.28722656 -55.64257812 45.28722656 -54.26171875 45.8671875 C-48.19027111 48.33666232 -42.25874544 50.2166603 -35.87109375 51.59375 C-19.63655904 55.19587411 -2.41040453 60.14994949 7.62890625 74.40625 C11.87170064 81.23329188 12.36830034 87.6203777 12.37890625 95.46875 C12.40339844 96.4071875 12.42789063 97.345625 12.453125 98.3125 C12.49558778 108.56018485 9.00861464 117.21370529 2.00390625 124.71875 C-11.57944363 137.45314051 -28.54306579 140.20517733 -46.4609375 139.92578125 C-61.14641924 139.42698285 -76.49626413 133.17683079 -86.99609375 122.71875 C-89.56325582 119.51858906 -91.83390681 116.20289579 -93.99609375 112.71875 C-94.55554688 111.83445312 -95.115 110.95015625 -95.69140625 110.0390625 C-96.99609375 107.71875 -96.99609375 107.71875 -96.99609375 105.71875 C-94.79408843 104.39453036 -92.58547549 103.08448271 -90.37109375 101.78125 C-89.44490234 101.22147461 -89.44490234 101.22147461 -88.5 100.65039062 C-84.66211583 98.40825829 -81.50398024 97.15566823 -76.99609375 96.71875 C-76.54878906 97.46640625 -76.10148438 98.2140625 -75.640625 98.984375 C-75.03605469 99.96921875 -74.43148437 100.9540625 -73.80859375 101.96875 C-73.21691406 102.94328125 -72.62523437 103.9178125 -72.015625 104.921875 C-69.93168218 107.80795441 -67.85907446 109.63029548 -64.99609375 111.71875 C-64.12984375 112.399375 -63.26359375 113.08 -62.37109375 113.78125 C-52.3685645 119.52344272 -39.91553324 120.48495593 -28.73828125 117.9921875 C-21.88601424 115.69565114 -16.96715274 112.93814635 -13.12109375 106.65625 C-10.84178602 100.43251153 -10.83268714 93.27824454 -13.55859375 87.28125 C-18.74741754 81.82633268 -24.11644814 78.92097444 -31.18359375 76.71875 C-31.95533936 76.46730225 -32.72708496 76.21585449 -33.5222168 75.95678711 C-38.54866837 74.36060019 -43.60523707 73.06312646 -48.74194336 71.87597656 C-63.38230381 68.48361301 -77.08921048 62.85354403 -85.91015625 49.91015625 C-91.41019764 40.30463373 -92.73311294 29.53037343 -90.3125 18.64453125 C-86.73762647 8.00891167 -79.76628427 -0.51040125 -69.9453125 -5.98046875 C-47.89232999 -16.68303253 -19.79091525 -15.06896285 0 0 Z " fill="#050505" transform="translate(763.99609375,75.28125)"/>
<path d="M0 0 C31.35 0 62.7 0 95 0 C95 6.27 95 12.54 95 19 C71.24 19 47.48 19 23 19 C23 33.52 23 48.04 23 63 C43.79 63 64.58 63 86 63 C86 69.27 86 75.54 86 82 C65.21 82 44.42 82 23 82 C23 96.85 23 111.7 23 127 C46.76 127 70.52 127 95 127 C95 133.27 95 139.54 95 146 C63.65 146 32.3 146 0 146 C0 97.82 0 49.64 0 0 Z " fill="#030303" transform="translate(535,66)"/>
<path d="M0 0 C7.59 0 15.18 0 23 0 C23 48.18 23 96.36 23 146 C15.41 146 7.82 146 0 146 C0 97.82 0 49.64 0 0 Z " fill="#010102" transform="translate(454,66)"/>
<path d="M0 0 C6.55875 -0.0825 13.1175 -0.165 19.875 -0.25 C22.94917236 -0.30462402 22.94917236 -0.30462402 26.08544922 -0.36035156 C43.31395587 -0.53789787 43.31395587 -0.53789787 51 4 C51.94875 4.515625 52.8975 5.03125 53.875 5.5625 C58.8558026 11.27577357 60.72401132 19.03824607 60.390625 26.515625 C59.38192067 32.93098455 56.76335211 39.50127856 52 44 C44.7839469 48.46635708 38.30646095 49.14982464 29.98046875 49.09765625 C29.21883423 49.09664917 28.45719971 49.09564209 27.67248535 49.09460449 C24.84414145 49.08939679 22.01581911 49.07543561 19.1875 49.0625 C12.855625 49.041875 6.52375 49.02125 0 49 C0 32.83 0 16.66 0 0 Z " fill="#F1F2F3" transform="translate(328,85)"/>
<path d="M0 0 C2.05376105 3.08064157 3.07189398 5.75940404 4.28125 9.25 C4.72464253 10.51714346 5.16867432 11.78406338 5.61328125 13.05078125 C5.95576904 14.03038818 5.95576904 14.03038818 6.30517578 15.02978516 C7.41476605 18.17609347 8.56724518 21.30633072 9.71875 24.4375 C10.06099609 25.36888794 10.06099609 25.36888794 10.41015625 26.3190918 C11.10620365 28.21293705 11.80298863 30.10650934 12.5 32 C14.33969543 36.99768907 16.17373075 41.9973828 18 47 C18.23992676 47.65548828 18.47985352 48.31097656 18.72705078 48.98632812 C19.43611839 50.92713392 20.14058126 52.86955033 20.84375 54.8125 C21.25818359 55.95332031 21.67261719 57.09414062 22.09960938 58.26953125 C23 61 23 61 23 63 C7.82 63 -7.36 63 -23 63 C-21.04544914 55.83331352 -19.09839974 49.37399904 -16.25 42.625 C-13.30390254 35.4791611 -10.68963284 28.29177532 -8.3125 20.9375 C-5.97247602 13.70415668 -3.45138687 6.79143868 0 0 Z " fill="#EEEFF0" transform="translate(204,96)"/>
</svg>
